<?xml version="1.0" encoding="utf-8"?><svg id="sw_4" image-rendering="auto" baseProfile="basic" version="1.1" x="0px" y="0px" width="1000" height="1000" xmlns="http://www.w3.org/2000/svg" xmlns:xlink="http://www.w3.org/1999/xlink"><g id="Scena-1" overflow="visible"><path id="Layer1_0_1_STROKES" stroke="#FFF" stroke-width="20" stroke-linejoin="round" stroke-linecap="round" fill="none" d="M308.85 439.25Q322.75 394.35 358.55 358.55 417.15 300 500 300 503.5 300 507 300.1 585.4 302.5 641.4 358.55 700 417.15 700 500 700 582.9 641.4 641.45 582.9 700 500 700 417.15 700 358.55 641.45 321.6 604.5 308 557.85L143.65 500 308.85 439.25Q300 467.75 300 500M308 557.85Q300.9 533.7 300.1 507 300 503.5 300 500"/><path id="Layer1_0_2_STROKES" stroke="#FFF" stroke-width="20" stroke-linejoin="round" stroke-linecap="butt" fill="none" d="M300 500L428.25 500"/></g></svg>